<svg width="none" height="none" viewBox="0 0 32 32" fill="none" xmlns="http://www.w3.org/2000/svg">
<circle cx="16" cy="16" r="16" fill="#BABDC3"/>
<path d="M11 22C11 22 10 22 10 21C10 20 11 17 16 17C21 17 22 20 22 21C22 22 21 22 21 22H11ZM16 16C16.7956 16 17.5587 15.684 18.1213 15.1214C18.6839 14.5587 19 13.7957 19 13C19 12.2044 18.6839 11.4413 18.1213 10.8787C17.5587 10.3161 16.7956 10 16 10C15.2044 10 14.4413 10.3161 13.8787 10.8787C13.3161 11.4413 13 12.2044 13 13C13 13.7957 13.3161 14.5587 13.8787 15.1214C14.4413 15.684 15.2044 16 16 16Z" fill="white"/>
</svg>
