<svg width="none" height="none" viewBox="0 0 32 32" fill="none" xmlns="http://www.w3.org/2000/svg">
<circle cx="16" cy="16" r="16" fill="#191919"/>
<path d="M12 17.2649C12 16.7778 12 16.3267 12 15.8747C12 15.5727 12.0128 15.2707 12.0029 14.9692C11.9962 14.7669 12.0594 14.6897 12.2725 14.6949C12.8326 14.7084 13.3932 14.6916 13.9534 14.7031C14.1626 14.7069 14.2244 14.6322 14.222 14.426C14.2149 13.7429 14.1906 13.0574 14.2372 12.3772C14.301 11.4448 14.6124 10.6112 15.3961 10.0282C15.8097 9.72049 16.2791 9.54887 16.7812 9.45587C17.5421 9.31564 18.3199 9.29365 19.0874 9.39068C19.1626 9.40511 19.2369 9.42383 19.3099 9.44676C19.3099 9.66104 19.3142 9.87341 19.3099 10.0858C19.2985 10.5699 19.2724 11.0541 19.2738 11.5383C19.2738 11.741 19.2063 11.7899 19.0146 11.7899C18.5344 11.7899 18.0508 11.7837 17.5758 11.8379C17.0765 11.8964 16.8092 12.2554 16.8069 12.7612C16.8043 13.3092 16.8021 13.8573 16.8002 14.4054C16.8002 14.4903 16.8002 14.5756 16.8002 14.6978H19.2348C19.2105 14.9452 19.1963 15.1532 19.1687 15.3594C19.094 15.9169 19.0104 16.4729 18.9376 17.0305C18.9162 17.1982 18.8601 17.273 18.6708 17.2701C18.0641 17.2562 17.4569 17.2649 16.7936 17.2649V22.6367C16.6709 22.6478 16.6034 22.6593 16.5349 22.6597C15.8563 22.6597 15.1773 22.654 14.4988 22.6645C14.3086 22.6674 14.2558 22.6046 14.2544 22.4205C14.2449 21.1895 14.2273 19.959 14.2101 18.7294C14.204 18.3089 14.1859 17.8881 14.1873 17.4676C14.1873 17.3071 14.1265 17.2653 13.9776 17.2668C13.4018 17.2721 12.8255 17.2668 12.2496 17.2668L12 17.2649Z" fill="white"/>
</svg>
