<svg width="none" height="none" viewBox="0 0 32 32" fill="none" xmlns="http://www.w3.org/2000/svg">
<circle cx="16" cy="16" r="16" fill="#191919"/>
<path fill-rule="evenodd" clip-rule="evenodd" d="M13.0743 8.88745C10.7747 8.88745 8.89355 10.7686 8.89355 13.0682V18.929C8.89355 21.2285 10.7747 23.1097 13.0743 23.1097H18.9351C21.2346 23.1097 23.1158 21.2285 23.1158 18.929V13.0682C23.1158 10.7686 21.2346 8.88745 18.9351 8.88745H13.0743ZM11.0601 11.0536C11.5984 10.5117 12.3184 10.2159 13.0743 10.2159H18.9351C19.6906 10.2159 20.4072 10.5151 20.9496 11.054C21.4915 11.5923 21.7873 12.3123 21.7873 13.0682V18.929C21.7873 19.6845 21.4881 20.4011 20.9492 20.9435C20.4109 21.4854 19.691 21.7812 18.9351 21.7812H13.0743C12.3187 21.7812 11.6022 21.482 11.0597 20.9431C10.5178 20.4048 10.222 19.6849 10.222 18.929V13.0682C10.222 12.3126 10.5213 11.5961 11.0601 11.0536ZM19.8165 11.2311C19.2861 11.2311 18.8592 11.658 18.8592 12.1884C18.8592 12.7187 19.2861 13.1456 19.8165 13.1456C20.3429 13.1456 20.7737 12.7189 20.7737 12.1884C20.7737 11.6578 20.3429 11.2311 19.8165 11.2311ZM16.0069 12.4033C14.0224 12.4033 12.4123 14.0134 12.4123 15.9979C12.4123 17.9825 14.0224 19.5925 16.0069 19.5925C17.9915 19.5925 19.6016 17.9825 19.6016 15.9979C19.6016 14.0134 17.9915 12.4033 16.0069 12.4033ZM13.7408 15.9979C13.7408 14.748 14.7571 13.7317 16.0069 13.7317C17.2568 13.7317 18.2731 14.748 18.2731 15.9979C18.2731 17.2478 17.2568 18.2641 16.0069 18.2641C14.7571 18.2641 13.7408 17.2478 13.7408 15.9979Z" fill="white"/>
</svg>
