<svg width="none" height="none" viewBox="0 0 32 32" fill="none" xmlns="http://www.w3.org/2000/svg">
<circle cx="16" cy="16" r="16" fill="#191919"/>
<path d="M13.8153 13.812C14.6245 13.812 15.4133 13.812 16.2022 13.812C16.3448 13.812 16.3718 13.8839 16.3708 14.0026C16.3708 14.3059 16.3708 14.6097 16.3708 14.9711C16.8544 14.3467 17.4552 13.994 18.1467 13.7789C20.1253 13.1642 22.1824 14.1938 22.5432 16.3926C22.6048 16.7684 22.637 17.1484 22.6395 17.5293C22.6502 19.1348 22.6395 20.7404 22.6492 22.346C22.6492 22.586 22.589 22.6706 22.3378 22.6655C21.6158 22.6497 20.8937 22.6523 20.1717 22.6655C19.9551 22.6691 19.9001 22.5937 19.9011 22.3867C19.9087 20.9596 19.9225 19.5324 19.8945 18.1052C19.8863 17.6913 19.8206 17.2479 19.656 16.8728C19.1271 15.6653 17.5866 15.8809 16.9482 16.6811C16.6562 17.0476 16.5303 17.4747 16.5283 17.935C16.5216 19.3871 16.5252 20.8403 16.5242 22.2924C16.5242 22.6604 16.5242 22.661 16.1446 22.661C15.4393 22.661 14.7341 22.661 14.0294 22.661C13.8831 22.661 13.7939 22.6446 13.7939 22.4571C13.7994 19.6201 13.8011 16.7827 13.799 13.945C13.8021 13.9004 13.8076 13.856 13.8153 13.812Z" fill="white"/>
<path d="M12.304 13.8347V22.2923C12.304 22.6587 12.304 22.6587 11.9264 22.6592C11.2216 22.6592 10.5164 22.6541 9.81168 22.6623C9.62314 22.6623 9.56199 22.6006 9.5625 22.4125C9.56726 19.6183 9.56845 16.824 9.56607 14.0294C9.56607 13.9713 9.57575 13.9132 9.58289 13.8342L12.304 13.8347Z" fill="white"/>
<path d="M10.9543 12.5234C10.0789 12.578 9.34971 11.8302 9.33137 10.952C9.31353 10.0891 10.0611 9.33729 10.9283 9.33423C11.3574 9.33719 11.7679 9.50994 12.07 9.81471C12.3721 10.1195 12.5413 10.5315 12.5406 10.9607C12.5335 11.8827 11.7839 12.5785 10.9543 12.5234Z" fill="white"/>
</svg>
