<svg width="24" height="24" viewBox="0 0 24 24" fill="none" xmlns="http://www.w3.org/2000/svg">
<path d="M6.00499 3.37398C7.59736 1.85395 9.75707 1 12.009 1C14.261 1 16.4207 1.85395 18.0131 3.37398C19.6054 4.89401 20.5 6.95562 20.5 9.10526C20.5 13.1579 16.861 18.9474 12.009 23C4.73083 16.9789 3.31579 11.2281 3.51804 9.10526C3.51804 6.95561 4.41263 4.89401 6.00499 3.37398Z" fill="#191919"/>
<path fill-rule="evenodd" clip-rule="evenodd" d="M8.63898 11.1711C8.63898 10.7736 8.73437 10.39 8.89847 10.0385L8.89656 10.0305C8.88233 9.97081 8.86262 9.88575 8.84047 9.78324C8.79631 9.5789 8.74174 9.30209 8.7016 9.01711C8.66203 8.7361 8.63392 8.43001 8.64959 8.17334C8.65735 8.04615 8.67683 7.91133 8.7225 7.79168C8.76735 7.67414 8.85581 7.52591 9.02917 7.45357C9.35114 7.31922 9.80181 7.33546 10.2212 7.45066C10.6275 7.56228 11.06 7.78125 11.3949 8.1281C11.5645 8.09795 11.7365 8.08247 11.909 8.0819V8.0819L11.9106 8.0819C12.0917 8.08217 12.2724 8.09741 12.4507 8.12743C12.7856 7.78057 13.218 7.5616 13.6242 7.44998C14.0436 7.33478 14.4942 7.31854 14.8162 7.45289C14.9896 7.52523 15.078 7.67346 15.1229 7.791C15.1685 7.91065 15.188 8.04547 15.1958 8.17266C15.2115 8.42933 15.1833 8.73542 15.1438 9.01643C15.1036 9.30141 15.0491 9.57822 15.0049 9.78256C14.9828 9.88507 14.963 9.97013 14.9488 10.0298L14.9485 10.0311C15.0974 10.3789 15.1812 10.7622 15.1812 11.1711C15.1812 12.9031 13.6488 13.9699 11.9101 13.9699C10.168 13.9699 8.63898 12.8643 8.63898 11.1711Z" fill="white"/>
<path fill-rule="evenodd" clip-rule="evenodd" d="M13.2373 10.6289C13.0567 10.6289 12.9102 10.7754 12.9102 10.956V11.1196C12.9102 11.3002 13.0567 11.4467 13.2373 11.4467C13.418 11.4467 13.5645 11.3002 13.5645 11.1196V10.956C13.5645 10.7754 13.418 10.6289 13.2373 10.6289Z" fill="black"/>
<path fill-rule="evenodd" clip-rule="evenodd" d="M10.6202 10.629C10.4395 10.629 10.293 10.7755 10.293 10.9561V11.1197C10.293 11.3004 10.4395 11.4468 10.6202 11.4468C10.8008 11.4468 10.9473 11.3004 10.9473 11.1197V10.9561C10.9473 10.7755 10.8008 10.629 10.6202 10.629Z" fill="black"/>
<path fill-rule="evenodd" clip-rule="evenodd" d="M12.477 11.5669C12.4264 11.4447 12.3071 11.365 12.1748 11.365H11.6842C11.5519 11.365 11.4326 11.4447 11.382 11.5669C11.3313 11.6892 11.3593 11.8299 11.4529 11.9234L11.6982 12.1687C11.8259 12.2965 12.0331 12.2965 12.1608 12.1687L12.4061 11.9234C12.4997 11.8299 12.5277 11.6892 12.477 11.5669Z" fill="black"/>
</svg>
