<svg width="none" height="none" viewBox="0 0 40 37" fill="none" xmlns="http://www.w3.org/2000/svg">
<g clip-path="url(#clip0_223_991)">
<path d="M7 36.5H33C36.5899 36.5 39.5 33.5899 39.5 30V7C39.5 3.41015 36.5899 0.5 33 0.5H7C3.41015 0.5 0.5 3.41015 0.5 7V30C0.5 33.5899 3.41015 36.5 7 36.5Z" stroke="black"/>
<path d="M16.0269 19.259H28.0469V17.525H16.0269C16.8878 16.8605 17.6492 16.0762 18.2879 15.196L16.7579 14.346C15.4912 15.9102 13.9957 17.2742 12.3219 18.392C13.9961 19.5097 15.4919 20.8737 16.7589 22.438L18.2889 21.588C17.6499 20.7077 16.8881 19.9234 16.0269 19.259Z" fill="black"/>
</g>
<defs>
<clipPath id="clip0_223_991">
<rect width="40" height="37" fill="white" transform="matrix(-1 0 0 -1 40 37)"/>
</clipPath>
</defs>
</svg>
