<svg width="none" height="none" viewBox="0 0 40 37" fill="none" xmlns="http://www.w3.org/2000/svg">
<path d="M33 0.5H7C3.41015 0.5 0.5 3.41015 0.5 7V30C0.5 33.5899 3.41015 36.5 7 36.5H33C36.5899 36.5 39.5 33.5899 39.5 30V7C39.5 3.41015 36.5899 0.5 33 0.5Z" stroke="black"/>
<path d="M23.9731 17.741H11.9531V19.475H23.9731C23.1122 20.1395 22.3508 20.9238 21.7121 21.804L23.2421 22.654C24.5088 21.0898 26.0043 19.7258 27.6781 18.608C26.0039 17.4903 24.5081 16.1263 23.2411 14.562L21.7111 15.412C22.3501 16.2923 23.1119 17.0766 23.9731 17.741Z" fill="black"/>
</svg>
