<svg width="none" height="none" viewBox="0 0 32 32" fill="none" xmlns="http://www.w3.org/2000/svg">
<circle cx="16" cy="16" r="16" fill="#191919"/>
<path d="M15.1226 13.9585V16.3583C14.8073 16.4348 14.4876 16.5016 14.1752 16.5923C13.9518 16.6571 13.7313 16.7399 13.5209 16.8373C12.43 17.3426 12.1858 18.3329 12.5272 19.3101C12.9236 20.4449 14.3615 21.0476 15.4596 20.5528C16.1043 20.2623 16.4621 19.7255 16.6071 19.0757C16.7087 18.6207 16.7473 18.144 16.7485 17.6768C16.7565 14.7771 16.7465 11.8775 16.7429 8.97823C16.7429 8.95938 16.7489 8.94053 16.7545 8.90834C16.8039 8.90363 16.8549 8.8946 16.9063 8.8946C17.5895 8.89342 18.2727 8.89774 18.9555 8.89067C19.0997 8.8891 19.1475 8.92954 19.1676 9.07128C19.2644 9.76036 19.4805 10.4094 19.911 10.9732C20.5159 11.7652 21.361 12.1213 22.3394 12.2265C22.3924 12.232 22.4454 12.2363 22.5133 12.2426V14.5027C21.9132 14.5737 21.3292 14.5082 20.7754 14.3005C20.2356 14.0978 19.7162 13.8434 19.1696 13.6035C19.1696 13.6542 19.1696 13.7229 19.1696 13.7916C19.1668 15.2447 19.1953 16.6987 19.1527 18.1507C19.1094 19.6329 18.5856 20.9419 17.4393 21.9569C15.4689 23.7014 12.375 23.5192 10.8114 21.0833C9.71812 19.38 9.84303 17.173 11.1138 15.6723C11.8448 14.8089 12.8144 14.3362 13.9229 14.1222C14.3133 14.0468 14.7126 14.0138 15.1226 13.9592V13.9585Z" fill="white"/>
</svg>
