<svg width="none" height="none" viewBox="0 0 32 32" fill="none" xmlns="http://www.w3.org/2000/svg">
<circle cx="16" cy="16" r="16" fill="#191919"/>
<path d="M22.8131 12.8132C22.7321 12.5117 22.5734 12.2367 22.3528 12.0158C22.1321 11.7949 21.8574 11.6359 21.5559 11.5545C20.4464 11.2561 15.9988 11.2561 15.9988 11.2561C15.9988 11.2561 11.5512 11.2561 10.4417 11.5529C10.1401 11.634 9.86519 11.793 9.64453 12.0139C9.42387 12.2349 9.26522 12.51 9.18452 12.8117C8.8877 13.9228 8.8877 16.2402 8.8877 16.2402C8.8877 16.2402 8.8877 18.5577 9.18452 19.6672C9.34801 20.2799 9.83055 20.7625 10.4417 20.9259C11.5512 21.2244 15.9988 21.2244 15.9988 21.2244C15.9988 21.2244 20.4464 21.2244 21.5559 20.9259C22.1686 20.7625 22.6496 20.2799 22.8131 19.6672C23.1099 18.5577 23.1099 16.2402 23.1099 16.2402C23.1099 16.2402 23.1099 13.9228 22.8131 12.8132ZM14.5861 18.3672V14.1132L18.2686 16.2244L14.5861 18.3672Z" fill="white"/>
</svg>
